<?xml version="1.0" encoding="UTF-8"?>
<svg id="Layer_2" data-name="Layer 2" xmlns="http://www.w3.org/2000/svg" viewBox="0 0 172.57 31.18">
  <defs>
    <style>
      .cls-1 {
        fill: #fff;
      }
    </style>
  </defs>
  <g id="Label">
    <path class="cls-1" d="M168.32,0H4.25C1.9,0,0,1.91,0,4.25V26.93c0,2.35,1.9,4.25,4.25,4.25H168.32c2.34,0,4.25-1.9,4.25-4.25V4.25c0-2.34-1.91-4.25-4.25-4.25ZM21.11,23.63c0,1.25-1.01,2.26-2.26,2.26H9.35c-1.25,0-2.27-1.01-2.27-2.26v-3.12c0-1.25,1.02-2.27,2.27-2.27h9.5c1.25,0,2.26,1.02,2.26,2.27v3.12Zm0-12.95c0,1.25-1.01,2.27-2.26,2.27H9.35c-1.25,0-2.27-1.02-2.27-2.27v-3.12c0-1.25,1.02-2.27,2.27-2.27h9.5c1.25,0,2.26,1.02,2.26,2.27v3.12Zm144.37,12.95c0,1.25-1.01,2.26-2.27,2.26h-9.49c-1.25,0-2.27-1.01-2.27-2.26v-3.12c0-1.25,1.02-2.27,2.27-2.27h9.49c1.26,0,2.27,1.02,2.27,2.27v3.12Zm0-12.95c0,1.25-1.01,2.27-2.27,2.27h-9.49c-1.25,0-2.27-1.02-2.27-2.27v-3.12c0-1.25,1.02-2.27,2.27-2.27h9.49c1.26,0,2.27,1.02,2.27,2.27v3.12Z"/>
  </g>
</svg>